G04*
G04 #@! TF.GenerationSoftware,Altium Limited,Altium Designer,24.10.1 (45)*
G04*
G04 Layer_Physical_Order=1*
G04 Layer_Color=255*
%FSLAX44Y44*%
%MOMM*%
G71*
G04*
G04 #@! TF.SameCoordinates,850EB1A7-B970-4B75-A401-C25B3E3AA128*
G04*
G04*
G04 #@! TF.FilePolarity,Positive*
G04*
G01*
G75*
%ADD10C,0.5080*%
%ADD13C,0.1524*%
%ADD19R,1.8034X1.1176*%
%ADD20R,0.7000X0.6000*%
%ADD21R,3.4000X0.6000*%
%ADD22R,1.1176X1.8034*%
%ADD32C,1.7780*%
%ADD33C,1.6200*%
%ADD34O,2.0000X3.8000*%
%ADD35O,3.3000X1.8000*%
%ADD36C,0.6350*%
D10*
X129540Y281940D02*
X162560Y314960D01*
X129540Y256523D02*
Y281940D01*
Y256523D02*
X162560Y223503D01*
Y314960D02*
Y429460D01*
X178144Y142240D02*
X179061Y141323D01*
X177800Y142240D02*
X178144D01*
X179061Y141323D02*
X193040D01*
X166263Y102763D02*
X171843Y108343D01*
X144450Y102763D02*
X166263D01*
X250952Y140863D02*
X254000Y137815D01*
X198450Y140863D02*
X250952D01*
X254000Y137160D02*
Y137815D01*
X193040Y141323D02*
Y215414D01*
X187960Y220494D02*
X193040Y215414D01*
X160037Y195580D02*
X187960Y223503D01*
Y220494D02*
Y223503D01*
X148900Y443120D02*
Y452120D01*
Y443120D02*
X162560Y429460D01*
X144780Y457200D02*
X149380Y452600D01*
X149380D01*
X149916Y453136D02*
X195580D01*
X149380Y452600D02*
X149916Y453136D01*
X54229Y248920D02*
X107569Y195580D01*
X160037D01*
X50800Y248920D02*
X54229D01*
X195580Y453136D02*
X243840D01*
D13*
X690414Y216887D02*
X693166Y214135D01*
X738462D02*
X741214Y216887D01*
X687299Y213771D02*
X690414Y216887D01*
X693166Y214135D02*
X738462D01*
X640189Y213771D02*
X687299D01*
X637074Y216887D02*
X640189Y213771D01*
X588531Y213360D02*
X633547D01*
X637074Y216887D01*
X414020Y213360D02*
X581477D01*
X585004Y216887D01*
X588531Y213360D01*
X637074Y186915D02*
X638344Y185645D01*
X671315Y38686D02*
X697301Y12700D01*
X671315Y38686D02*
Y156103D01*
X641773Y185645D02*
X671315Y156103D01*
X638344Y185645D02*
X641773D01*
X697301Y12700D02*
X781427D01*
X788293Y149860D02*
X845820D01*
X787400Y148967D02*
X788293Y149860D01*
X787400Y18673D02*
Y148967D01*
X781427Y12700D02*
X787400Y18673D01*
X411480Y215900D02*
X414020Y213360D01*
X171323Y139557D02*
X175117Y135763D01*
X171323Y139557D02*
Y141290D01*
X175117Y135763D02*
X176850D01*
X160213Y152400D02*
X171323Y141290D01*
X176850Y135763D02*
X184450Y128163D01*
X52451Y152400D02*
X160213D01*
X184450Y128163D02*
X198450D01*
X50800Y150749D02*
X52451Y152400D01*
X370781Y109161D02*
X382970Y121350D01*
X390590D01*
X393700Y124460D01*
X180082Y109161D02*
X370781D01*
X178148Y111095D02*
X180082Y109161D01*
X178148Y111095D02*
Y111198D01*
X173883Y115463D02*
X178148Y111198D01*
X144450Y115463D02*
X173883D01*
X393700Y124460D02*
Y135544D01*
X386080Y143164D02*
Y215900D01*
Y143164D02*
X393700Y135544D01*
X739944Y108429D02*
X742484Y105889D01*
Y82521D02*
Y105889D01*
X694224Y82521D02*
Y108429D01*
X638344Y82521D02*
Y108175D01*
Y138147D02*
Y185645D01*
X144450Y128163D02*
X171750D01*
X184450Y115463D01*
X198450D01*
X739944Y138401D02*
Y185645D01*
X741214Y186915D01*
X694224Y138401D02*
Y183105D01*
X690414Y186915D02*
X694224Y183105D01*
X110617Y120777D02*
X118003Y128163D01*
X144450D01*
X50800Y120777D02*
X110617D01*
X50800Y55800D02*
Y120777D01*
Y27165D02*
Y45800D01*
Y27165D02*
X50995Y26970D01*
X50800Y150749D02*
Y218948D01*
X243840Y423164D02*
X289560D01*
X582464Y82521D02*
Y108175D01*
X290576Y452120D02*
X320040D01*
X289560Y453136D02*
X290576Y452120D01*
X579035Y138147D02*
X582464D01*
Y184375D02*
X585004Y186915D01*
X582464Y138147D02*
Y184375D01*
X195580Y396240D02*
Y423164D01*
X143073Y142240D02*
X144450Y140863D01*
X116840Y142240D02*
X143073D01*
X284822Y138010D02*
X303084D01*
X283972Y137160D02*
X284822Y138010D01*
D19*
X582464Y108175D02*
D03*
Y138147D02*
D03*
X585004Y186915D02*
D03*
Y216887D02*
D03*
X637074D02*
D03*
Y186915D02*
D03*
X50800Y120777D02*
D03*
Y150749D02*
D03*
Y218948D02*
D03*
Y248920D02*
D03*
X289560Y423164D02*
D03*
Y453136D02*
D03*
X243840D02*
D03*
Y423164D02*
D03*
X739944Y138401D02*
D03*
Y108429D02*
D03*
X694224Y138401D02*
D03*
Y108429D02*
D03*
X690414Y186915D02*
D03*
Y216887D02*
D03*
X741214Y186915D02*
D03*
Y216887D02*
D03*
X195580Y423164D02*
D03*
Y453136D02*
D03*
X638344Y108175D02*
D03*
Y138147D02*
D03*
D20*
X50800Y45800D02*
D03*
Y55800D02*
D03*
D21*
X144450Y140863D02*
D03*
Y128163D02*
D03*
Y115463D02*
D03*
Y102763D02*
D03*
X198450D02*
D03*
Y115463D02*
D03*
Y128163D02*
D03*
Y140863D02*
D03*
D22*
X254000Y137160D02*
D03*
X283972D02*
D03*
D32*
X393700Y73660D02*
D03*
Y48260D02*
D03*
Y124460D02*
D03*
Y99060D02*
D03*
X213360Y314960D02*
D03*
X238760D02*
D03*
X162560D02*
D03*
X187960D02*
D03*
X845820Y124460D02*
D03*
Y149860D02*
D03*
Y73660D02*
D03*
Y99060D02*
D03*
D33*
X187960Y223503D02*
D03*
X162560D02*
D03*
X411480Y215900D02*
D03*
X386080D02*
D03*
D34*
X144780Y457200D02*
D03*
X84780D02*
D03*
D35*
X119780Y410700D02*
D03*
D36*
X177800Y142240D02*
D03*
X171843Y108343D02*
D03*
X742484Y82521D02*
D03*
X694224D02*
D03*
X638344D02*
D03*
X582464D02*
D03*
X320040Y452120D02*
D03*
X195580Y396240D02*
D03*
X303084Y138010D02*
D03*
X50800Y25400D02*
D03*
X116840Y142240D02*
D03*
M02*
