M48
;Layer_Color=9474304
;FILE_FORMAT=4:4
METRIC,LZ
;TYPE=PLATED
T01F00S00C0.3302
T03F00S00C1.0160
T04F00S00C1.0201
%
T01
X000508Y000254
X0011684Y0014224
X001778
X00171843Y00108343
X00303084Y0013801
X00582464Y00082521
X00638344
X00694224
X00742484
X0032004Y0045212
X0019558Y0039624
T03
X003937Y0004826
Y0007366
Y0009906
Y0012446
X0084582
Y0009906
Y0007366
Y0014986
X0023876Y0031496
X0021336
X0018796
X0016256
T04
X0016256Y00223503
X0018796
X0038608Y002159
X0041148
M30
