G04*
G04 #@! TF.GenerationSoftware,Altium Limited,Altium Designer,24.10.1 (45)*
G04*
G04 Layer_Physical_Order=2*
G04 Layer_Color=16711680*
%FSLAX44Y44*%
%MOMM*%
G71*
G04*
G04 #@! TF.SameCoordinates,850EB1A7-B970-4B75-A401-C25B3E3AA128*
G04*
G04*
G04 #@! TF.FilePolarity,Positive*
G04*
G01*
G75*
%ADD10C,0.5080*%
%ADD32C,1.7780*%
%ADD33C,1.6200*%
%ADD34O,2.0000X3.8000*%
%ADD35O,3.3000X1.8000*%
%ADD36C,0.6350*%
G36*
X883820Y5179D02*
X5179D01*
Y502821D01*
X883820D01*
Y5179D01*
D02*
G37*
%LPC*%
G36*
X86050Y478681D02*
Y458470D01*
X97428D01*
Y466200D01*
X96997Y469474D01*
X95734Y472524D01*
X93724Y475144D01*
X91104Y477154D01*
X88054Y478417D01*
X86050Y478681D01*
D02*
G37*
G36*
X83510D02*
X81506Y478417D01*
X78456Y477154D01*
X75836Y475144D01*
X73826Y472524D01*
X72563Y469474D01*
X72132Y466200D01*
Y458470D01*
X83510D01*
Y478681D01*
D02*
G37*
G36*
X97428Y455930D02*
X86050D01*
Y435719D01*
X88054Y435983D01*
X91104Y437246D01*
X93724Y439256D01*
X95734Y441876D01*
X96997Y444926D01*
X97428Y448200D01*
Y455930D01*
D02*
G37*
G36*
X83510D02*
X72132D01*
Y448200D01*
X72563Y444926D01*
X73826Y441876D01*
X75836Y439256D01*
X78456Y437246D01*
X81506Y435983D01*
X83510Y435719D01*
Y455930D01*
D02*
G37*
G36*
X144780Y478848D02*
X141506Y478417D01*
X138456Y477154D01*
X135836Y475144D01*
X133826Y472524D01*
X132563Y469474D01*
X132132Y466200D01*
Y448200D01*
X132563Y444926D01*
X133826Y441876D01*
X135836Y439256D01*
X138456Y437246D01*
X141506Y435983D01*
X144780Y435552D01*
X148054Y435983D01*
X151104Y437246D01*
X153724Y439256D01*
X155734Y441876D01*
X156997Y444926D01*
X157428Y448200D01*
Y466200D01*
X156997Y469474D01*
X155734Y472524D01*
X153724Y475144D01*
X151104Y477154D01*
X148054Y478417D01*
X144780Y478848D01*
D02*
G37*
G36*
X127280Y422340D02*
X121050D01*
Y411970D01*
X138752D01*
X138523Y413713D01*
X137360Y416520D01*
X135510Y418930D01*
X133100Y420780D01*
X130293Y421943D01*
X127280Y422340D01*
D02*
G37*
G36*
X118510D02*
X112280D01*
X109267Y421943D01*
X106460Y420780D01*
X104050Y418930D01*
X102200Y416520D01*
X101037Y413713D01*
X100808Y411970D01*
X118510D01*
Y422340D01*
D02*
G37*
G36*
X138752Y409430D02*
X121050D01*
Y399060D01*
X127280D01*
X130293Y399457D01*
X133100Y400620D01*
X135510Y402470D01*
X137360Y404880D01*
X138523Y407687D01*
X138752Y409430D01*
D02*
G37*
G36*
X118510D02*
X100808D01*
X101037Y407687D01*
X102200Y404880D01*
X104050Y402470D01*
X106460Y400620D01*
X109267Y399457D01*
X112280Y399060D01*
X118510D01*
Y409430D01*
D02*
G37*
G36*
X164065Y326390D02*
X161055D01*
X158148Y325611D01*
X155542Y324106D01*
X153414Y321978D01*
X151909Y319372D01*
X151130Y316465D01*
Y313455D01*
X151909Y310548D01*
X153414Y307942D01*
X155542Y305814D01*
X158148Y304309D01*
X161055Y303530D01*
X164065D01*
X166972Y304309D01*
X169578Y305814D01*
X171706Y307942D01*
X173211Y310548D01*
X173990Y313455D01*
Y316465D01*
X173211Y319372D01*
X171706Y321978D01*
X169578Y324106D01*
X166972Y325611D01*
X164065Y326390D01*
D02*
G37*
G36*
X189361Y234144D02*
X186559D01*
X183853Y233418D01*
X181427Y232018D01*
X179446Y230037D01*
X178045Y227610D01*
X177320Y224904D01*
Y222103D01*
X178045Y219397D01*
X179446Y216970D01*
X181427Y214989D01*
X183853Y213589D01*
X186559Y212863D01*
X189361D01*
X192067Y213589D01*
X194493Y214989D01*
X196474Y216970D01*
X197875Y219397D01*
X198600Y222103D01*
Y224904D01*
X197875Y227610D01*
X196474Y230037D01*
X194493Y232018D01*
X192067Y233418D01*
X189361Y234144D01*
D02*
G37*
G36*
X163961D02*
X161159D01*
X158453Y233418D01*
X156027Y232018D01*
X154046Y230037D01*
X152645Y227610D01*
X151920Y224904D01*
Y222103D01*
X152645Y219397D01*
X154046Y216970D01*
X156027Y214989D01*
X158453Y213589D01*
X161159Y212863D01*
X163961D01*
X166667Y213589D01*
X169093Y214989D01*
X171074Y216970D01*
X172475Y219397D01*
X173200Y222103D01*
Y224904D01*
X172475Y227610D01*
X171074Y230037D01*
X169093Y232018D01*
X166667Y233418D01*
X163961Y234144D01*
D02*
G37*
G36*
X412881Y226540D02*
X410079D01*
X407373Y225815D01*
X404947Y224414D01*
X402966Y222433D01*
X401565Y220007D01*
X400840Y217301D01*
Y214499D01*
X401565Y211793D01*
X402966Y209367D01*
X404947Y207386D01*
X407373Y205985D01*
X410079Y205260D01*
X412881D01*
X415587Y205985D01*
X418013Y207386D01*
X419994Y209367D01*
X421395Y211793D01*
X422120Y214499D01*
Y217301D01*
X421395Y220007D01*
X419994Y222433D01*
X418013Y224414D01*
X415587Y225815D01*
X412881Y226540D01*
D02*
G37*
G36*
X387481D02*
X384679D01*
X381973Y225815D01*
X379547Y224414D01*
X377566Y222433D01*
X376165Y220007D01*
X375440Y217301D01*
Y214499D01*
X376165Y211793D01*
X377566Y209367D01*
X379547Y207386D01*
X381973Y205985D01*
X384679Y205260D01*
X387481D01*
X390187Y205985D01*
X392613Y207386D01*
X394594Y209367D01*
X395995Y211793D01*
X396720Y214499D01*
Y217301D01*
X395995Y220007D01*
X394594Y222433D01*
X392613Y224414D01*
X390187Y225815D01*
X387481Y226540D01*
D02*
G37*
G36*
X847325Y161290D02*
X844315D01*
X841408Y160511D01*
X838802Y159006D01*
X836674Y156878D01*
X835169Y154272D01*
X834390Y151365D01*
Y148355D01*
X835169Y145448D01*
X836674Y142842D01*
X838802Y140714D01*
X841408Y139209D01*
X844315Y138430D01*
X847325D01*
X850232Y139209D01*
X852838Y140714D01*
X854966Y142842D01*
X856471Y145448D01*
X857250Y148355D01*
Y151365D01*
X856471Y154272D01*
X854966Y156878D01*
X852838Y159006D01*
X850232Y160511D01*
X847325Y161290D01*
D02*
G37*
G36*
X395205Y135890D02*
X392195D01*
X389288Y135111D01*
X386682Y133606D01*
X384554Y131478D01*
X383049Y128872D01*
X382270Y125965D01*
Y122955D01*
X383049Y120048D01*
X384554Y117442D01*
X386682Y115314D01*
X389288Y113809D01*
X392195Y113030D01*
X395205D01*
X398112Y113809D01*
X400718Y115314D01*
X402846Y117442D01*
X404351Y120048D01*
X405130Y122955D01*
Y125965D01*
X404351Y128872D01*
X402846Y131478D01*
X400718Y133606D01*
X398112Y135111D01*
X395205Y135890D01*
D02*
G37*
G36*
X178937Y147955D02*
X176663D01*
X175370Y147420D01*
X175260D01*
X173278Y147025D01*
X171597Y145903D01*
X168181Y142486D01*
X167058Y140805D01*
X166663Y138823D01*
Y110773D01*
X166128Y109480D01*
Y107206D01*
X166998Y105106D01*
X168606Y103498D01*
X170706Y102628D01*
X172980D01*
X175080Y103498D01*
X176688Y105106D01*
X177558Y107206D01*
Y109480D01*
X177023Y110773D01*
Y136525D01*
X178937D01*
X181037Y137395D01*
X182645Y139003D01*
X183515Y141103D01*
Y143377D01*
X182645Y145477D01*
X181037Y147085D01*
X178937Y147955D01*
D02*
G37*
%LPD*%
D10*
X175260Y142240D02*
X177800D01*
X171843Y108343D02*
Y138823D01*
X175260Y142240D01*
D32*
X393700Y73660D02*
D03*
Y48260D02*
D03*
Y124460D02*
D03*
Y99060D02*
D03*
X213360Y314960D02*
D03*
X238760D02*
D03*
X162560D02*
D03*
X187960D02*
D03*
X845820Y124460D02*
D03*
Y149860D02*
D03*
Y73660D02*
D03*
Y99060D02*
D03*
D33*
X187960Y223503D02*
D03*
X162560D02*
D03*
X411480Y215900D02*
D03*
X386080D02*
D03*
D34*
X144780Y457200D02*
D03*
X84780D02*
D03*
D35*
X119780Y410700D02*
D03*
D36*
X177800Y142240D02*
D03*
X171843Y108343D02*
D03*
X742484Y82521D02*
D03*
X694224D02*
D03*
X638344D02*
D03*
X582464D02*
D03*
X320040Y452120D02*
D03*
X195580Y396240D02*
D03*
X303084Y138010D02*
D03*
X50800Y25400D02*
D03*
X116840Y142240D02*
D03*
M02*
