G04*
G04 #@! TF.GenerationSoftware,Altium Limited,Altium Designer,24.10.1 (45)*
G04*
G04 Layer_Color=16711935*
%FSLAX44Y44*%
%MOMM*%
G71*
G04*
G04 #@! TF.SameCoordinates,850EB1A7-B970-4B75-A401-C25B3E3AA128*
G04*
G04*
G04 #@! TF.FilePolarity,Negative*
G04*
G01*
G75*
%ADD23C,0.0000*%
%ADD27C,1.9812*%
%ADD28C,1.8232*%
%ADD29O,2.2032X4.0032*%
%ADD30O,3.5032X2.0032*%
%ADD31C,0.8382*%
D23*
X196571Y223503D02*
G03*
X196571Y223503I-8611J0D01*
G01*
X171171D02*
G03*
X171171Y223503I-8611J0D01*
G01*
X420091Y215900D02*
G03*
X420091Y215900I-8611J0D01*
G01*
X394691D02*
G03*
X394691Y215900I-8611J0D01*
G01*
D27*
X393700Y73660D02*
D03*
Y48260D02*
D03*
Y124460D02*
D03*
Y99060D02*
D03*
X213360Y314960D02*
D03*
X238760D02*
D03*
X162560D02*
D03*
X187960D02*
D03*
X845820Y124460D02*
D03*
Y149860D02*
D03*
Y73660D02*
D03*
Y99060D02*
D03*
D28*
X187960Y223503D02*
D03*
X162560D02*
D03*
X411480Y215900D02*
D03*
X386080D02*
D03*
D29*
X144780Y457200D02*
D03*
X84780D02*
D03*
D30*
X119780Y410700D02*
D03*
D31*
X177800Y142240D02*
D03*
X171843Y108343D02*
D03*
X742484Y82521D02*
D03*
X694224D02*
D03*
X638344D02*
D03*
X582464D02*
D03*
X320040Y452120D02*
D03*
X195580Y396240D02*
D03*
X303084Y138010D02*
D03*
X50800Y25400D02*
D03*
X116840Y142240D02*
D03*
M02*
