G04*
G04 #@! TF.GenerationSoftware,Altium Limited,Altium Designer,24.10.1 (45)*
G04*
G04 Layer_Color=65535*
%FSLAX44Y44*%
%MOMM*%
G71*
G04*
G04 #@! TF.SameCoordinates,850EB1A7-B970-4B75-A401-C25B3E3AA128*
G04*
G04*
G04 #@! TF.FilePolarity,Positive*
G04*
G01*
G75*
%ADD10C,0.5080*%
%ADD11C,0.4000*%
%ADD12C,0.3000*%
%ADD13C,0.1524*%
%ADD14C,0.2540*%
%ADD15C,0.3810*%
%ADD16C,0.1999*%
%ADD17C,0.1270*%
%ADD18C,0.2000*%
D10*
X134847Y223899D02*
G03*
X134847Y223899I-1270J0D01*
G01*
X145450Y151023D02*
G03*
X145450Y151023I-1250J0D01*
G01*
X358367Y216295D02*
G03*
X358367Y216295I-1270J0D01*
G01*
D11*
X172688Y456946D02*
G03*
X172688Y456946I-2000J0D01*
G01*
D12*
X168386Y140355D02*
G03*
X168386Y140355I-1000J0D01*
G01*
D13*
X593864Y118335D02*
Y127987D01*
X571064Y118335D02*
Y127987D01*
X598004Y187677D02*
Y215617D01*
X572004Y187423D02*
Y215363D01*
X624074Y187423D02*
Y215363D01*
X650074Y187677D02*
Y215617D01*
X62200Y130937D02*
Y140589D01*
X39400Y130937D02*
Y140589D01*
X62200Y229108D02*
Y238760D01*
X39400Y229108D02*
Y238760D01*
X300960Y433324D02*
Y442976D01*
X278160Y433324D02*
Y442976D01*
X230840Y423672D02*
Y451612D01*
X256840Y423926D02*
Y451866D01*
X728544Y118589D02*
Y128241D01*
X751344Y118589D02*
Y128241D01*
X682824Y118589D02*
Y128241D01*
X705624Y118589D02*
Y128241D01*
X703414Y187677D02*
Y215617D01*
X677414Y187423D02*
Y215363D01*
X754214Y187677D02*
Y215617D01*
X728214Y187423D02*
Y215363D01*
X43942Y41402D02*
Y59182D01*
X57658Y41402D02*
Y59182D01*
X204470Y433324D02*
Y442976D01*
X186690Y433324D02*
Y442976D01*
X264160Y128270D02*
X273812D01*
X264160Y146050D02*
X273812D01*
X649744Y118335D02*
Y127987D01*
X626944Y118335D02*
Y127987D01*
D14*
X578400Y176755D02*
X592624D01*
X630470D02*
X644694D01*
X377190Y93345D02*
Y104775D01*
Y99060D02*
X379798D01*
X373380Y95885D02*
Y102235D01*
X369570Y98425D02*
Y100272D01*
X377190Y67945D02*
Y79375D01*
Y73660D02*
X379798D01*
X373380Y70485D02*
Y76835D01*
X369570Y73025D02*
Y74872D01*
X377190Y42545D02*
Y53975D01*
Y48260D02*
X379798D01*
X373380Y45085D02*
Y51435D01*
X369570Y47625D02*
Y49472D01*
X182245Y298450D02*
X193675D01*
X187960D02*
Y301058D01*
X184785Y294640D02*
X191135D01*
X186748Y290830D02*
X188595D01*
X207645Y298450D02*
X219075D01*
X213360D02*
Y301058D01*
X210185Y294640D02*
X216535D01*
X212148Y290830D02*
X213995D01*
X233045Y298450D02*
X244475D01*
X238760D02*
Y301058D01*
X235585Y294640D02*
X241935D01*
X237548Y290830D02*
X239395D01*
X237236Y413004D02*
X251460D01*
X85010Y457200D02*
X85090D01*
X683810Y176755D02*
X698034D01*
X734610D02*
X748834D01*
X821690Y73025D02*
Y74872D01*
X825500Y70485D02*
Y76835D01*
X829310Y73660D02*
X831918D01*
X829310Y67945D02*
Y79375D01*
X821690Y98425D02*
Y100272D01*
X825500Y95885D02*
Y102235D01*
X829310Y99060D02*
X831918D01*
X829310Y93345D02*
Y104775D01*
X821690Y123825D02*
Y125672D01*
X825500Y121285D02*
Y127635D01*
X829310Y124460D02*
X831918D01*
X829310Y118745D02*
Y130175D01*
X452119Y397082D02*
Y384384D01*
X452966Y381845D01*
X454659Y380152D01*
X457198Y379305D01*
X458891D01*
X461431Y380152D01*
X463124Y381845D01*
X463970Y384384D01*
Y397082D01*
X452966D02*
Y384384D01*
X453812Y381845D01*
X455505Y380152D01*
X457198Y379305D01*
X449580Y397082D02*
X455505D01*
X461431D02*
X466510D01*
X471165Y391156D02*
Y379305D01*
X472012Y391156D02*
Y379305D01*
Y388617D02*
X473705Y390310D01*
X476244Y391156D01*
X477937D01*
X480477Y390310D01*
X481323Y388617D01*
Y379305D01*
X477937Y391156D02*
X479630Y390310D01*
X480477Y388617D01*
Y379305D01*
X468626Y391156D02*
X472012D01*
X468626Y379305D02*
X474551D01*
X477937D02*
X483863D01*
X488688Y397082D02*
X487841Y396235D01*
X488688Y395389D01*
X489534Y396235D01*
X488688Y397082D01*
Y391156D02*
Y379305D01*
X489534Y391156D02*
Y379305D01*
X486148Y391156D02*
X489534D01*
X486148Y379305D02*
X492074D01*
X496983Y391156D02*
X502062Y379305D01*
X497830Y391156D02*
X502062Y380998D01*
X507141Y391156D02*
X502062Y379305D01*
X495290Y391156D02*
X500369D01*
X503755D02*
X508834D01*
X512135Y386077D02*
X522293D01*
Y387770D01*
X521447Y389463D01*
X520600Y390310D01*
X518907Y391156D01*
X516368D01*
X513828Y390310D01*
X512135Y388617D01*
X511289Y386077D01*
Y384384D01*
X512135Y381845D01*
X513828Y380152D01*
X516368Y379305D01*
X518061D01*
X520600Y380152D01*
X522293Y381845D01*
X521447Y386077D02*
Y388617D01*
X520600Y390310D01*
X516368Y391156D02*
X514675Y390310D01*
X512982Y388617D01*
X512135Y386077D01*
Y384384D01*
X512982Y381845D01*
X514675Y380152D01*
X516368Y379305D01*
X527541Y391156D02*
Y379305D01*
X528388Y391156D02*
Y379305D01*
Y386077D02*
X529234Y388617D01*
X530927Y390310D01*
X532620Y391156D01*
X535160D01*
X536006Y390310D01*
Y389463D01*
X535160Y388617D01*
X534313Y389463D01*
X535160Y390310D01*
X525002Y391156D02*
X528388D01*
X525002Y379305D02*
X530927D01*
X547180Y389463D02*
X548026Y391156D01*
Y387770D01*
X547180Y389463D01*
X546333Y390310D01*
X544640Y391156D01*
X541254D01*
X539561Y390310D01*
X538715Y389463D01*
Y387770D01*
X539561Y386924D01*
X541254Y386077D01*
X545487Y384384D01*
X547180Y383538D01*
X548026Y382691D01*
X538715Y388617D02*
X539561Y387770D01*
X541254Y386924D01*
X545487Y385231D01*
X547180Y384384D01*
X548026Y383538D01*
Y380998D01*
X547180Y380152D01*
X545487Y379305D01*
X542101D01*
X540408Y380152D01*
X539561Y380998D01*
X538715Y382691D01*
Y379305D01*
X539561Y380998D01*
X553444Y397082D02*
X552597Y396235D01*
X553444Y395389D01*
X554290Y396235D01*
X553444Y397082D01*
Y391156D02*
Y379305D01*
X554290Y391156D02*
Y379305D01*
X550904Y391156D02*
X554290D01*
X550904Y379305D02*
X556830D01*
X565125D02*
X564279Y380152D01*
X563432Y382691D01*
Y397082D01*
X562586D01*
Y382691D01*
X563432Y380152D01*
X565125Y379305D01*
X566818D01*
X568511Y380152D01*
X569358Y381845D01*
X560046Y391156D02*
X566818D01*
X573929D02*
X579008Y379305D01*
X574775Y391156D02*
X579008Y380998D01*
X584086Y391156D02*
X579008Y379305D01*
X577315Y375919D01*
X575622Y374226D01*
X573929Y373380D01*
X573082D01*
X572236Y374226D01*
X573082Y375073D01*
X573929Y374226D01*
X572236Y391156D02*
X577315D01*
X580700D02*
X585779D01*
X609312D02*
X606772Y390310D01*
X605079Y388617D01*
X604233Y386077D01*
Y384384D01*
X605079Y381845D01*
X606772Y380152D01*
X609312Y379305D01*
X611005D01*
X613544Y380152D01*
X615237Y381845D01*
X616084Y384384D01*
Y386077D01*
X615237Y388617D01*
X613544Y390310D01*
X611005Y391156D01*
X609312D01*
X607619Y390310D01*
X605926Y388617D01*
X605079Y386077D01*
Y384384D01*
X605926Y381845D01*
X607619Y380152D01*
X609312Y379305D01*
X611005D02*
X612698Y380152D01*
X614391Y381845D01*
X615237Y384384D01*
Y386077D01*
X614391Y388617D01*
X612698Y390310D01*
X611005Y391156D01*
X625480Y396235D02*
X624633Y395389D01*
X625480Y394542D01*
X626326Y395389D01*
Y396235D01*
X625480Y397082D01*
X623787D01*
X622094Y396235D01*
X621247Y394542D01*
Y379305D01*
X623787Y397082D02*
X622940Y396235D01*
X622094Y394542D01*
Y379305D01*
X618708Y391156D02*
X625480D01*
X618708Y379305D02*
X624633D01*
X657223Y394542D02*
X658069Y392003D01*
Y397082D01*
X657223Y394542D01*
X655530Y396235D01*
X652990Y397082D01*
X651297D01*
X648758Y396235D01*
X647065Y394542D01*
X646218Y392849D01*
X645372Y390310D01*
Y386077D01*
X646218Y383538D01*
X647065Y381845D01*
X648758Y380152D01*
X651297Y379305D01*
X652990D01*
X655530Y380152D01*
X657223Y381845D01*
X658069Y383538D01*
X651297Y397082D02*
X649604Y396235D01*
X647912Y394542D01*
X647065Y392849D01*
X646218Y390310D01*
Y386077D01*
X647065Y383538D01*
X647912Y381845D01*
X649604Y380152D01*
X651297Y379305D01*
X665688Y391156D02*
X663148Y390310D01*
X661455Y388617D01*
X660609Y386077D01*
Y384384D01*
X661455Y381845D01*
X663148Y380152D01*
X665688Y379305D01*
X667381D01*
X669920Y380152D01*
X671613Y381845D01*
X672459Y384384D01*
Y386077D01*
X671613Y388617D01*
X669920Y390310D01*
X667381Y391156D01*
X665688D01*
X663995Y390310D01*
X662302Y388617D01*
X661455Y386077D01*
Y384384D01*
X662302Y381845D01*
X663995Y380152D01*
X665688Y379305D01*
X667381D02*
X669074Y380152D01*
X670767Y381845D01*
X671613Y384384D01*
Y386077D01*
X670767Y388617D01*
X669074Y390310D01*
X667381Y391156D01*
X677623Y397082D02*
Y379305D01*
X678470Y397082D02*
Y379305D01*
X675084Y397082D02*
X678470D01*
X675084Y379305D02*
X681009D01*
X689305Y391156D02*
X686765Y390310D01*
X685072Y388617D01*
X684226Y386077D01*
Y384384D01*
X685072Y381845D01*
X686765Y380152D01*
X689305Y379305D01*
X690998D01*
X693537Y380152D01*
X695230Y381845D01*
X696077Y384384D01*
Y386077D01*
X695230Y388617D01*
X693537Y390310D01*
X690998Y391156D01*
X689305D01*
X687612Y390310D01*
X685919Y388617D01*
X685072Y386077D01*
Y384384D01*
X685919Y381845D01*
X687612Y380152D01*
X689305Y379305D01*
X690998D02*
X692691Y380152D01*
X694383Y381845D01*
X695230Y384384D01*
Y386077D01*
X694383Y388617D01*
X692691Y390310D01*
X690998Y391156D01*
X701240D02*
Y379305D01*
X702086Y391156D02*
Y379305D01*
Y386077D02*
X702933Y388617D01*
X704626Y390310D01*
X706319Y391156D01*
X708858D01*
X709705Y390310D01*
Y389463D01*
X708858Y388617D01*
X708012Y389463D01*
X708858Y390310D01*
X698701Y391156D02*
X702086D01*
X698701Y379305D02*
X704626D01*
X714107Y389463D02*
Y388617D01*
X713260D01*
Y389463D01*
X714107Y390310D01*
X715800Y391156D01*
X719185D01*
X720879Y390310D01*
X721725Y389463D01*
X722571Y387770D01*
Y381845D01*
X723418Y380152D01*
X724264Y379305D01*
X721725Y389463D02*
Y381845D01*
X722571Y380152D01*
X724264Y379305D01*
X725111D01*
X721725Y387770D02*
X720879Y386924D01*
X715800Y386077D01*
X713260Y385231D01*
X712414Y383538D01*
Y381845D01*
X713260Y380152D01*
X715800Y379305D01*
X718339D01*
X720032Y380152D01*
X721725Y381845D01*
X715800Y386077D02*
X714107Y385231D01*
X713260Y383538D01*
Y381845D01*
X714107Y380152D01*
X715800Y379305D01*
X737808Y397082D02*
Y379305D01*
X738655Y397082D02*
Y379305D01*
X737808Y388617D02*
X736115Y390310D01*
X734422Y391156D01*
X732729D01*
X730190Y390310D01*
X728497Y388617D01*
X727650Y386077D01*
Y384384D01*
X728497Y381845D01*
X730190Y380152D01*
X732729Y379305D01*
X734422D01*
X736115Y380152D01*
X737808Y381845D01*
X732729Y391156D02*
X731036Y390310D01*
X729343Y388617D01*
X728497Y386077D01*
Y384384D01*
X729343Y381845D01*
X731036Y380152D01*
X732729Y379305D01*
X735269Y397082D02*
X738655D01*
X737808Y379305D02*
X741194D01*
X748728Y391156D02*
X746188Y390310D01*
X744495Y388617D01*
X743649Y386077D01*
Y384384D01*
X744495Y381845D01*
X746188Y380152D01*
X748728Y379305D01*
X750421D01*
X752960Y380152D01*
X754653Y381845D01*
X755500Y384384D01*
Y386077D01*
X754653Y388617D01*
X752960Y390310D01*
X750421Y391156D01*
X748728D01*
X747035Y390310D01*
X745342Y388617D01*
X744495Y386077D01*
Y384384D01*
X745342Y381845D01*
X747035Y380152D01*
X748728Y379305D01*
X750421D02*
X752114Y380152D01*
X753807Y381845D01*
X754653Y384384D01*
Y386077D01*
X753807Y388617D01*
X752114Y390310D01*
X750421Y391156D01*
X776662Y397082D02*
Y379305D01*
X777508Y397082D02*
Y379305D01*
X774122Y397082D02*
X784280D01*
X786820Y396235D01*
X787666Y395389D01*
X788513Y393696D01*
Y392003D01*
X787666Y390310D01*
X786820Y389463D01*
X784280Y388617D01*
Y397082D02*
X785973Y396235D01*
X786820Y395389D01*
X787666Y393696D01*
Y392003D01*
X786820Y390310D01*
X785973Y389463D01*
X784280Y388617D01*
X777508D02*
X784280D01*
X786820Y387770D01*
X787666Y386924D01*
X788513Y385231D01*
Y382691D01*
X787666Y380998D01*
X786820Y380152D01*
X784280Y379305D01*
X774122D01*
X784280Y388617D02*
X785973Y387770D01*
X786820Y386924D01*
X787666Y385231D01*
Y382691D01*
X786820Y380998D01*
X785973Y380152D01*
X784280Y379305D01*
X795962Y391156D02*
X793422Y390310D01*
X791729Y388617D01*
X790883Y386077D01*
Y384384D01*
X791729Y381845D01*
X793422Y380152D01*
X795962Y379305D01*
X797655D01*
X800194Y380152D01*
X801887Y381845D01*
X802734Y384384D01*
Y386077D01*
X801887Y388617D01*
X800194Y390310D01*
X797655Y391156D01*
X795962D01*
X794269Y390310D01*
X792576Y388617D01*
X791729Y386077D01*
Y384384D01*
X792576Y381845D01*
X794269Y380152D01*
X795962Y379305D01*
X797655D02*
X799348Y380152D01*
X801041Y381845D01*
X801887Y384384D01*
Y386077D01*
X801041Y388617D01*
X799348Y390310D01*
X797655Y391156D01*
X807897D02*
Y381845D01*
X808744Y380152D01*
X811283Y379305D01*
X812976D01*
X815516Y380152D01*
X817208Y381845D01*
X808744Y391156D02*
Y381845D01*
X809590Y380152D01*
X811283Y379305D01*
X817208Y391156D02*
Y379305D01*
X818055Y391156D02*
Y379305D01*
X805358Y391156D02*
X808744D01*
X814669D02*
X818055D01*
X817208Y379305D02*
X820594D01*
X825419Y397082D02*
Y379305D01*
X826266Y397082D02*
Y379305D01*
X822880Y397082D02*
X826266D01*
X822880Y379305D02*
X828805D01*
X842180Y397082D02*
Y379305D01*
X843026Y397082D02*
Y379305D01*
X842180Y388617D02*
X840487Y390310D01*
X838794Y391156D01*
X837101D01*
X834561Y390310D01*
X832868Y388617D01*
X832022Y386077D01*
Y384384D01*
X832868Y381845D01*
X834561Y380152D01*
X837101Y379305D01*
X838794D01*
X840487Y380152D01*
X842180Y381845D01*
X837101Y391156D02*
X835408Y390310D01*
X833715Y388617D01*
X832868Y386077D01*
Y384384D01*
X833715Y381845D01*
X835408Y380152D01*
X837101Y379305D01*
X839640Y397082D02*
X843026D01*
X842180Y379305D02*
X845566D01*
X848867Y386077D02*
X859025D01*
Y387770D01*
X858178Y389463D01*
X857332Y390310D01*
X855639Y391156D01*
X853100D01*
X850560Y390310D01*
X848867Y388617D01*
X848021Y386077D01*
Y384384D01*
X848867Y381845D01*
X850560Y380152D01*
X853100Y379305D01*
X854792D01*
X857332Y380152D01*
X859025Y381845D01*
X858178Y386077D02*
Y388617D01*
X857332Y390310D01*
X853100Y391156D02*
X851406Y390310D01*
X849714Y388617D01*
X848867Y386077D01*
Y384384D01*
X849714Y381845D01*
X851406Y380152D01*
X853100Y379305D01*
X864273Y391156D02*
Y379305D01*
X865120Y391156D02*
Y379305D01*
Y386077D02*
X865966Y388617D01*
X867659Y390310D01*
X869352Y391156D01*
X871891D01*
X872738Y390310D01*
Y389463D01*
X871891Y388617D01*
X871045Y389463D01*
X871891Y390310D01*
X861734Y391156D02*
X865120D01*
X861734Y379305D02*
X867659D01*
X858520Y213360D02*
Y218438D01*
Y215899D01*
X843285D01*
X845824Y213360D01*
X843285Y226056D02*
X858520D01*
X853442D01*
X843285Y236213D01*
X850902Y228595D01*
X858520Y236213D01*
X843285Y264144D02*
Y259065D01*
X845824Y256526D01*
X855981D01*
X858520Y259065D01*
Y264144D01*
X855981Y266683D01*
X845824D01*
X843285Y264144D01*
Y271761D02*
X858520D01*
X850902D01*
X848363Y274300D01*
Y279379D01*
X850902Y281918D01*
X858520D01*
Y286996D02*
X848363D01*
Y289535D01*
X850902Y292075D01*
X858520D01*
X850902D01*
X848363Y294614D01*
X850902Y297153D01*
X858520D01*
X569768Y153643D02*
Y168878D01*
X577386D01*
X579925Y166339D01*
Y161261D01*
X577386Y158722D01*
X569768D01*
X574847D02*
X579925Y153643D01*
X585003Y166339D02*
X587542Y168878D01*
X592621D01*
X595160Y166339D01*
Y163800D01*
X592621Y161261D01*
X590082D01*
X592621D01*
X595160Y158722D01*
Y156182D01*
X592621Y153643D01*
X587542D01*
X585003Y156182D01*
X573786Y246375D02*
Y231140D01*
X581404D01*
X583943Y233679D01*
Y243836D01*
X581404Y246375D01*
X573786D01*
X589021Y231140D02*
X594099D01*
X591560D01*
Y246375D01*
X589021Y243836D01*
X625856Y246375D02*
Y231140D01*
X633474D01*
X636013Y233679D01*
Y243836D01*
X633474Y246375D01*
X625856D01*
X651248Y231140D02*
X641091D01*
X651248Y241297D01*
Y243836D01*
X648709Y246375D01*
X643630D01*
X641091Y243836D01*
X396247Y165098D02*
X406403D01*
X401325D01*
Y149862D01*
X411482D02*
Y165098D01*
X419099D01*
X421638Y162558D01*
Y157480D01*
X419099Y154941D01*
X411482D01*
X436873Y149862D02*
X426717D01*
X436873Y160019D01*
Y162558D01*
X434334Y165098D01*
X429256D01*
X426717Y162558D01*
X5084Y132083D02*
Y147317D01*
X12702D01*
X15241Y144778D01*
Y139700D01*
X12702Y137161D01*
X5084D01*
X10163D02*
X15241Y132083D01*
X30476D02*
X20319D01*
X30476Y142239D01*
Y144778D01*
X27937Y147317D01*
X22858D01*
X20319Y144778D01*
X10163Y228603D02*
Y243838D01*
X17781D01*
X20320Y241298D01*
Y236220D01*
X17781Y233681D01*
X10163D01*
X15242D02*
X20320Y228603D01*
X25398D02*
X30477D01*
X27938D01*
Y243838D01*
X25398Y241298D01*
X167657Y260348D02*
X165118Y262887D01*
X160040D01*
X157500Y260348D01*
Y257809D01*
X160040Y255270D01*
X165118D01*
X167657Y252730D01*
Y250191D01*
X165118Y247652D01*
X160040D01*
X157500Y250191D01*
X172736Y262887D02*
Y247652D01*
X177814Y252730D01*
X182892Y247652D01*
Y262887D01*
X187971Y245113D02*
X198127D01*
X210823Y262887D02*
X205745D01*
X203206Y260348D01*
Y250191D01*
X205745Y247652D01*
X210823D01*
X213363Y250191D01*
Y260348D01*
X210823Y262887D01*
X220980Y247652D02*
Y260348D01*
Y255270D01*
X218441D01*
X223519D01*
X220980D01*
Y260348D01*
X223519Y262887D01*
X233676Y247652D02*
Y260348D01*
Y255270D01*
X231137D01*
X236215D01*
X233676D01*
Y260348D01*
X236215Y262887D01*
X243833Y247652D02*
X253989Y257809D01*
X266685Y262887D02*
X261607D01*
X259068Y260348D01*
Y250191D01*
X261607Y247652D01*
X266685D01*
X269224Y250191D01*
Y260348D01*
X266685Y262887D01*
X274303Y247652D02*
Y257809D01*
X281920D01*
X284459Y255270D01*
Y247652D01*
X190506Y353058D02*
X200662D01*
X195584D01*
Y337822D01*
X205741D02*
Y353058D01*
X213358D01*
X215898Y350518D01*
Y345440D01*
X213358Y342901D01*
X205741D01*
X220976Y337822D02*
X226054D01*
X223515D01*
Y353058D01*
X220976Y350518D01*
X279404Y469902D02*
Y485137D01*
X287022D01*
X289561Y482598D01*
Y477520D01*
X287022Y474981D01*
X279404D01*
X284482D02*
X289561Y469902D01*
X294639Y485137D02*
X304796D01*
Y482598D01*
X294639Y472442D01*
Y469902D01*
X231144Y485137D02*
Y469902D01*
X238762D01*
X241301Y472442D01*
Y482598D01*
X238762Y485137D01*
X231144D01*
X256536D02*
X246379D01*
Y477520D01*
X251458Y480059D01*
X253997D01*
X256536Y477520D01*
Y472442D01*
X253997Y469902D01*
X248918D01*
X246379Y472442D01*
X548639Y434336D02*
Y416560D01*
X549486Y434336D02*
Y416560D01*
X554565Y429257D02*
Y422485D01*
X546100Y434336D02*
X559644D01*
Y429257D01*
X558797Y434336D01*
X549486Y425871D02*
X554565D01*
X546100Y416560D02*
X559644D01*
Y421639D01*
X558797Y416560D01*
X573949Y431797D02*
X574796Y429257D01*
Y434336D01*
X573949Y431797D01*
X572256Y433490D01*
X569717Y434336D01*
X568024D01*
X565485Y433490D01*
X563792Y431797D01*
X562945Y430104D01*
X562099Y427564D01*
Y423332D01*
X562945Y420792D01*
X563792Y419100D01*
X565485Y417407D01*
X568024Y416560D01*
X569717D01*
X572256Y417407D01*
X573949Y419100D01*
X574796Y420792D01*
X568024Y434336D02*
X566331Y433490D01*
X564638Y431797D01*
X563792Y430104D01*
X562945Y427564D01*
Y423332D01*
X563792Y420792D01*
X564638Y419100D01*
X566331Y417407D01*
X568024Y416560D01*
X579875Y434336D02*
Y416560D01*
X580721Y434336D02*
Y416560D01*
X585800Y429257D02*
Y422485D01*
X577335Y434336D02*
X590879D01*
Y429257D01*
X590033Y434336D01*
X580721Y425871D02*
X585800D01*
X577335Y416560D02*
X590879D01*
Y421639D01*
X590033Y416560D01*
X595873Y434336D02*
Y416560D01*
X596720Y434336D02*
X606878Y418253D01*
X596720Y432643D02*
X606878Y416560D01*
Y434336D02*
Y416560D01*
X593334Y434336D02*
X596720D01*
X604338D02*
X609417D01*
X593334Y416560D02*
X598413D01*
X629310Y434336D02*
X627617Y425871D01*
X629310Y427564D01*
X631849Y428411D01*
X634388D01*
X636928Y427564D01*
X638621Y425871D01*
X639467Y423332D01*
Y421639D01*
X638621Y419100D01*
X636928Y417407D01*
X634388Y416560D01*
X631849D01*
X629310Y417407D01*
X628463Y418253D01*
X627617Y419946D01*
Y420792D01*
X628463Y421639D01*
X629310Y420792D01*
X628463Y419946D01*
X634388Y428411D02*
X636081Y427564D01*
X637774Y425871D01*
X638621Y423332D01*
Y421639D01*
X637774Y419100D01*
X636081Y417407D01*
X634388Y416560D01*
X629310Y434336D02*
X637774D01*
X629310Y433490D02*
X633542D01*
X637774Y434336D01*
X642091D02*
Y429257D01*
Y430950D02*
X642938Y432643D01*
X644631Y434336D01*
X646324D01*
X650556Y431797D01*
X652249D01*
X653096Y432643D01*
X653942Y434336D01*
X642938Y432643D02*
X644631Y433490D01*
X646324D01*
X650556Y431797D01*
X653942Y434336D02*
Y431797D01*
X653096Y429257D01*
X649710Y425025D01*
X648863Y423332D01*
X648017Y420792D01*
Y416560D01*
X653096Y429257D02*
X648863Y425025D01*
X648017Y423332D01*
X647170Y420792D01*
Y416560D01*
X657413Y430950D02*
X658259Y430104D01*
X657413Y429257D01*
X656566Y430104D01*
Y430950D01*
X657413Y432643D01*
X658259Y433490D01*
X660799Y434336D01*
X664185D01*
X666724Y433490D01*
X667571Y431797D01*
Y429257D01*
X666724Y427564D01*
X664185Y426718D01*
X661645D01*
X664185Y434336D02*
X665878Y433490D01*
X666724Y431797D01*
Y429257D01*
X665878Y427564D01*
X664185Y426718D01*
X665878Y425871D01*
X667571Y424178D01*
X668417Y422485D01*
Y419946D01*
X667571Y418253D01*
X666724Y417407D01*
X664185Y416560D01*
X660799D01*
X658259Y417407D01*
X657413Y418253D01*
X656566Y419946D01*
Y420792D01*
X657413Y421639D01*
X658259Y420792D01*
X657413Y419946D01*
X666724Y425025D02*
X667571Y422485D01*
Y419946D01*
X666724Y418253D01*
X665878Y417407D01*
X664185Y416560D01*
X676120Y434336D02*
X673581Y433490D01*
X671888Y430950D01*
X671041Y426718D01*
Y424178D01*
X671888Y419946D01*
X673581Y417407D01*
X676120Y416560D01*
X677813D01*
X680353Y417407D01*
X682046Y419946D01*
X682892Y424178D01*
Y426718D01*
X682046Y430950D01*
X680353Y433490D01*
X677813Y434336D01*
X676120D01*
X674427Y433490D01*
X673581Y432643D01*
X672734Y430950D01*
X671888Y426718D01*
Y424178D01*
X672734Y419946D01*
X673581Y418253D01*
X674427Y417407D01*
X676120Y416560D01*
X677813D02*
X679506Y417407D01*
X680353Y418253D01*
X681199Y419946D01*
X682046Y424178D01*
Y426718D01*
X681199Y430950D01*
X680353Y432643D01*
X679506Y433490D01*
X677813Y434336D01*
X707440D02*
Y416560D01*
X708287Y434336D02*
Y416560D01*
X702361Y434336D02*
X701515Y429257D01*
Y434336D01*
X714212D01*
Y429257D01*
X713365Y434336D01*
X704901Y416560D02*
X710826D01*
X719291Y434336D02*
X718444Y433490D01*
X719291Y432643D01*
X720137Y433490D01*
X719291Y434336D01*
Y428411D02*
Y416560D01*
X720137Y428411D02*
Y416560D01*
X716751Y428411D02*
X720137D01*
X716751Y416560D02*
X722677D01*
X728433Y428411D02*
Y416560D01*
X729279Y428411D02*
Y416560D01*
Y425871D02*
X730972Y427564D01*
X733512Y428411D01*
X735205D01*
X737744Y427564D01*
X738591Y425871D01*
Y416560D01*
X735205Y428411D02*
X736898Y427564D01*
X737744Y425871D01*
Y416560D01*
X738591Y425871D02*
X740284Y427564D01*
X742823Y428411D01*
X744516D01*
X747056Y427564D01*
X747902Y425871D01*
Y416560D01*
X744516Y428411D02*
X746209Y427564D01*
X747056Y425871D01*
Y416560D01*
X725893Y428411D02*
X729279D01*
X725893Y416560D02*
X731819D01*
X735205D02*
X741130D01*
X744516D02*
X750442D01*
X752642Y423332D02*
X762800D01*
Y425025D01*
X761954Y426718D01*
X761107Y427564D01*
X759414Y428411D01*
X756875D01*
X754335Y427564D01*
X752642Y425871D01*
X751796Y423332D01*
Y421639D01*
X752642Y419100D01*
X754335Y417407D01*
X756875Y416560D01*
X758568D01*
X761107Y417407D01*
X762800Y419100D01*
X761954Y423332D02*
Y425871D01*
X761107Y427564D01*
X756875Y428411D02*
X755182Y427564D01*
X753489Y425871D01*
X752642Y423332D01*
Y421639D01*
X753489Y419100D01*
X755182Y417407D01*
X756875Y416560D01*
X768048Y428411D02*
Y416560D01*
X768895Y428411D02*
Y416560D01*
Y423332D02*
X769741Y425871D01*
X771434Y427564D01*
X773127Y428411D01*
X775667D01*
X776513Y427564D01*
Y426718D01*
X775667Y425871D01*
X774820Y426718D01*
X775667Y427564D01*
X765509Y428411D02*
X768895D01*
X765509Y416560D02*
X771434D01*
X797760Y434336D02*
Y416560D01*
X798606Y434336D02*
Y416560D01*
X795221Y434336D02*
X805378D01*
X807918Y433490D01*
X808764Y432643D01*
X809611Y430950D01*
Y429257D01*
X808764Y427564D01*
X807918Y426718D01*
X805378Y425871D01*
Y434336D02*
X807071Y433490D01*
X807918Y432643D01*
X808764Y430950D01*
Y429257D01*
X807918Y427564D01*
X807071Y426718D01*
X805378Y425871D01*
X798606D02*
X805378D01*
X807918Y425025D01*
X808764Y424178D01*
X809611Y422485D01*
Y419946D01*
X808764Y418253D01*
X807918Y417407D01*
X805378Y416560D01*
X795221D01*
X805378Y425871D02*
X807071Y425025D01*
X807918Y424178D01*
X808764Y422485D01*
Y419946D01*
X807918Y418253D01*
X807071Y417407D01*
X805378Y416560D01*
X817060Y428411D02*
X814520Y427564D01*
X812828Y425871D01*
X811981Y423332D01*
Y421639D01*
X812828Y419100D01*
X814520Y417407D01*
X817060Y416560D01*
X818753D01*
X821292Y417407D01*
X822985Y419100D01*
X823832Y421639D01*
Y423332D01*
X822985Y425871D01*
X821292Y427564D01*
X818753Y428411D01*
X817060D01*
X815367Y427564D01*
X813674Y425871D01*
X812828Y423332D01*
Y421639D01*
X813674Y419100D01*
X815367Y417407D01*
X817060Y416560D01*
X818753D02*
X820446Y417407D01*
X822139Y419100D01*
X822985Y421639D01*
Y423332D01*
X822139Y425871D01*
X820446Y427564D01*
X818753Y428411D01*
X828149Y426718D02*
Y425871D01*
X827302D01*
Y426718D01*
X828149Y427564D01*
X829842Y428411D01*
X833228D01*
X834921Y427564D01*
X835767Y426718D01*
X836614Y425025D01*
Y419100D01*
X837460Y417407D01*
X838307Y416560D01*
X835767Y426718D02*
Y419100D01*
X836614Y417407D01*
X838307Y416560D01*
X839153D01*
X835767Y425025D02*
X834921Y424178D01*
X829842Y423332D01*
X827302Y422485D01*
X826456Y420792D01*
Y419100D01*
X827302Y417407D01*
X829842Y416560D01*
X832381D01*
X834074Y417407D01*
X835767Y419100D01*
X829842Y423332D02*
X828149Y422485D01*
X827302Y420792D01*
Y419100D01*
X828149Y417407D01*
X829842Y416560D01*
X844232Y428411D02*
Y416560D01*
X845079Y428411D02*
Y416560D01*
Y423332D02*
X845925Y425871D01*
X847618Y427564D01*
X849311Y428411D01*
X851850D01*
X852697Y427564D01*
Y426718D01*
X851850Y425871D01*
X851004Y426718D01*
X851850Y427564D01*
X841693Y428411D02*
X845079D01*
X841693Y416560D02*
X847618D01*
X865564Y434336D02*
Y416560D01*
X866410Y434336D02*
Y416560D01*
X865564Y425871D02*
X863870Y427564D01*
X862178Y428411D01*
X860485D01*
X857945Y427564D01*
X856252Y425871D01*
X855406Y423332D01*
Y421639D01*
X856252Y419100D01*
X857945Y417407D01*
X860485Y416560D01*
X862178D01*
X863870Y417407D01*
X865564Y419100D01*
X860485Y428411D02*
X858792Y427564D01*
X857099Y425871D01*
X856252Y423332D01*
Y421639D01*
X857099Y419100D01*
X858792Y417407D01*
X860485Y416560D01*
X863024Y434336D02*
X866410D01*
X865564Y416560D02*
X868949D01*
X670559Y474976D02*
Y457200D01*
X671406Y474976D02*
Y457200D01*
X668020Y474976D02*
X678178D01*
X680717Y474130D01*
X681564Y473283D01*
X682410Y471590D01*
Y469897D01*
X681564Y468204D01*
X680717Y467358D01*
X678178Y466511D01*
Y474976D02*
X679871Y474130D01*
X680717Y473283D01*
X681564Y471590D01*
Y469897D01*
X680717Y468204D01*
X679871Y467358D01*
X678178Y466511D01*
X671406D02*
X678178D01*
X680717Y465665D01*
X681564Y464818D01*
X682410Y463125D01*
Y460586D01*
X681564Y458893D01*
X680717Y458046D01*
X678178Y457200D01*
X668020D01*
X678178Y466511D02*
X679871Y465665D01*
X680717Y464818D01*
X681564Y463125D01*
Y460586D01*
X680717Y458893D01*
X679871Y458046D01*
X678178Y457200D01*
X687320Y474976D02*
Y457200D01*
X688166Y474976D02*
Y457200D01*
Y466511D02*
X689859Y468204D01*
X692399Y469051D01*
X694092D01*
X696631Y468204D01*
X697478Y466511D01*
Y457200D01*
X694092Y469051D02*
X695785Y468204D01*
X696631Y466511D01*
Y457200D01*
X684780Y474976D02*
X688166D01*
X684780Y457200D02*
X690706D01*
X694092D02*
X700017D01*
X703996Y467358D02*
Y466511D01*
X703149D01*
Y467358D01*
X703996Y468204D01*
X705689Y469051D01*
X709075D01*
X710768Y468204D01*
X711614Y467358D01*
X712460Y465665D01*
Y459739D01*
X713307Y458046D01*
X714154Y457200D01*
X711614Y467358D02*
Y459739D01*
X712460Y458046D01*
X714154Y457200D01*
X715000D01*
X711614Y465665D02*
X710768Y464818D01*
X705689Y463972D01*
X703149Y463125D01*
X702303Y461432D01*
Y459739D01*
X703149Y458046D01*
X705689Y457200D01*
X708228D01*
X709921Y458046D01*
X711614Y459739D01*
X705689Y463972D02*
X703996Y463125D01*
X703149Y461432D01*
Y459739D01*
X703996Y458046D01*
X705689Y457200D01*
X720079Y474976D02*
Y457200D01*
X720925Y474976D02*
Y457200D01*
X729390Y469051D02*
X720925Y460586D01*
X725158Y463972D02*
X730237Y457200D01*
X724311Y463972D02*
X729390Y457200D01*
X717539Y474976D02*
X720925D01*
X726851Y469051D02*
X731930D01*
X717539Y457200D02*
X723465D01*
X726851D02*
X731930D01*
X739379D02*
X738532Y458046D01*
X737686Y460586D01*
Y474976D01*
X736839D01*
Y460586D01*
X737686Y458046D01*
X739379Y457200D01*
X741072D01*
X742765Y458046D01*
X743611Y459739D01*
X734300Y469051D02*
X741072D01*
X749029Y474976D02*
X748182Y474130D01*
X749029Y473283D01*
X749875Y474130D01*
X749029Y474976D01*
Y469051D02*
Y457200D01*
X749875Y469051D02*
Y457200D01*
X746489Y469051D02*
X749875D01*
X746489Y457200D02*
X752415D01*
X774169Y474976D02*
Y457200D01*
X775016Y474976D02*
Y457200D01*
X771630Y474976D02*
X781788D01*
X784327Y474130D01*
X785174Y473283D01*
X786020Y471590D01*
Y469897D01*
X785174Y468204D01*
X784327Y467358D01*
X781788Y466511D01*
X775016D01*
X781788Y474976D02*
X783481Y474130D01*
X784327Y473283D01*
X785174Y471590D01*
Y469897D01*
X784327Y468204D01*
X783481Y467358D01*
X781788Y466511D01*
X771630Y457200D02*
X777555D01*
X779248Y466511D02*
X780941Y465665D01*
X781788Y464818D01*
X784327Y458893D01*
X785174Y458046D01*
X786020D01*
X786867Y458893D01*
X780941Y465665D02*
X781788Y463972D01*
X783481Y458046D01*
X784327Y457200D01*
X786020D01*
X786867Y458893D01*
Y459739D01*
X790845Y467358D02*
Y466511D01*
X789998D01*
Y467358D01*
X790845Y468204D01*
X792538Y469051D01*
X795924D01*
X797617Y468204D01*
X798463Y467358D01*
X799310Y465665D01*
Y459739D01*
X800156Y458046D01*
X801003Y457200D01*
X798463Y467358D02*
Y459739D01*
X799310Y458046D01*
X801003Y457200D01*
X801849D01*
X798463Y465665D02*
X797617Y464818D01*
X792538Y463972D01*
X789998Y463125D01*
X789152Y461432D01*
Y459739D01*
X789998Y458046D01*
X792538Y457200D01*
X795077D01*
X796770Y458046D01*
X798463Y459739D01*
X792538Y463972D02*
X790845Y463125D01*
X789998Y461432D01*
Y459739D01*
X790845Y458046D01*
X792538Y457200D01*
X806928Y469051D02*
Y457200D01*
X807775Y469051D02*
Y457200D01*
Y466511D02*
X809468Y468204D01*
X812007Y469051D01*
X813700D01*
X816240Y468204D01*
X817086Y466511D01*
Y457200D01*
X813700Y469051D02*
X815393Y468204D01*
X816240Y466511D01*
Y457200D01*
X817086Y466511D02*
X818779Y468204D01*
X821319Y469051D01*
X823011D01*
X825551Y468204D01*
X826397Y466511D01*
Y457200D01*
X823011Y469051D02*
X824704Y468204D01*
X825551Y466511D01*
Y457200D01*
X804389Y469051D02*
X807775D01*
X804389Y457200D02*
X810314D01*
X813700D02*
X819625D01*
X823011D02*
X828937D01*
X831984Y467358D02*
Y466511D01*
X831138D01*
Y467358D01*
X831984Y468204D01*
X833677Y469051D01*
X837063D01*
X838756Y468204D01*
X839603Y467358D01*
X840449Y465665D01*
Y459739D01*
X841295Y458046D01*
X842142Y457200D01*
X839603Y467358D02*
Y459739D01*
X840449Y458046D01*
X842142Y457200D01*
X842989D01*
X839603Y465665D02*
X838756Y464818D01*
X833677Y463972D01*
X831138Y463125D01*
X830291Y461432D01*
Y459739D01*
X831138Y458046D01*
X833677Y457200D01*
X836217D01*
X837910Y458046D01*
X839603Y459739D01*
X833677Y463972D02*
X831984Y463125D01*
X831138Y461432D01*
Y459739D01*
X831984Y458046D01*
X833677Y457200D01*
X848067Y469051D02*
Y457200D01*
X848914Y469051D02*
Y457200D01*
Y466511D02*
X850607Y468204D01*
X853146Y469051D01*
X854839D01*
X857379Y468204D01*
X858225Y466511D01*
Y457200D01*
X854839Y469051D02*
X856532Y468204D01*
X857379Y466511D01*
Y457200D01*
X845528Y469051D02*
X848914D01*
X845528Y457200D02*
X851453D01*
X854839D02*
X860765D01*
X865590Y474976D02*
X864743Y474130D01*
X865590Y473283D01*
X866436Y474130D01*
X865590Y474976D01*
Y469051D02*
Y457200D01*
X866436Y469051D02*
Y457200D01*
X863050Y469051D02*
X866436D01*
X863050Y457200D02*
X868976D01*
X14933Y386082D02*
Y401317D01*
X22551D01*
X25090Y398778D01*
Y393700D01*
X22551Y391161D01*
X14933D01*
X30168Y386082D02*
X35247D01*
X32708D01*
Y401317D01*
X30168Y398778D01*
X162563Y175257D02*
Y162562D01*
X165103Y160023D01*
X170181D01*
X172720Y162562D01*
Y175257D01*
X177798Y160023D02*
X182877D01*
X180338D01*
Y175257D01*
X177798Y172718D01*
X822960Y189987D02*
X833117D01*
X828038D01*
Y174752D01*
X838195D02*
Y189987D01*
X845813D01*
X848352Y187448D01*
Y182369D01*
X845813Y179830D01*
X838195D01*
X853430Y187448D02*
X855969Y189987D01*
X861048D01*
X863587Y187448D01*
Y184909D01*
X861048Y182369D01*
X858509D01*
X861048D01*
X863587Y179830D01*
Y177291D01*
X861048Y174752D01*
X855969D01*
X853430Y177291D01*
X354357Y251458D02*
X351818Y253997D01*
X346740D01*
X344200Y251458D01*
Y248919D01*
X346740Y246380D01*
X351818D01*
X354357Y243840D01*
Y241301D01*
X351818Y238762D01*
X346740D01*
X344200Y241301D01*
X359436Y253997D02*
Y238762D01*
X364514Y243840D01*
X369592Y238762D01*
Y253997D01*
X374670Y236223D02*
X384827D01*
X389906Y253997D02*
Y238762D01*
X400062D01*
X415297Y253997D02*
X405141D01*
Y238762D01*
X415297D01*
X405141Y246380D02*
X410219D01*
X420376Y253997D02*
Y238762D01*
X427993D01*
X430532Y241301D01*
Y251458D01*
X427993Y253997D01*
X420376D01*
X435611Y236223D02*
X445768D01*
X453385Y238762D02*
X458463D01*
X461003Y241301D01*
Y246380D01*
X458463Y248919D01*
X453385D01*
X450846Y246380D01*
Y241301D01*
X453385Y238762D01*
X468620D02*
Y251458D01*
Y246380D01*
X466081D01*
X471159D01*
X468620D01*
Y251458D01*
X471159Y253997D01*
X481316Y238762D02*
Y251458D01*
Y246380D01*
X478777D01*
X483855D01*
X481316D01*
Y251458D01*
X483855Y253997D01*
X491473Y238762D02*
X501629Y248919D01*
X509247Y238762D02*
X514325D01*
X516865Y241301D01*
Y246380D01*
X514325Y248919D01*
X509247D01*
X506708Y246380D01*
Y241301D01*
X509247Y238762D01*
X521943D02*
Y248919D01*
X529560D01*
X532100Y246380D01*
Y238762D01*
X730250Y152654D02*
Y167889D01*
X737868D01*
X740407Y165350D01*
Y160271D01*
X737868Y157732D01*
X730250D01*
X735328D02*
X740407Y152654D01*
X755642Y167889D02*
X750563Y165350D01*
X745485Y160271D01*
Y155193D01*
X748024Y152654D01*
X753103D01*
X755642Y155193D01*
Y157732D01*
X753103Y160271D01*
X745485D01*
X684530Y152654D02*
Y167889D01*
X692148D01*
X694687Y165350D01*
Y160271D01*
X692148Y157732D01*
X684530D01*
X689608D02*
X694687Y152654D01*
X709922Y167889D02*
X699765D01*
Y160271D01*
X704843Y162811D01*
X707383D01*
X709922Y160271D01*
Y155193D01*
X707383Y152654D01*
X702304D01*
X699765Y155193D01*
X628650Y152400D02*
Y167635D01*
X636268D01*
X638807Y165096D01*
Y160018D01*
X636268Y157478D01*
X628650D01*
X633728D02*
X638807Y152400D01*
X651503D02*
Y167635D01*
X643885Y160018D01*
X654042D01*
X729996Y246375D02*
Y231140D01*
X737614D01*
X740153Y233679D01*
Y243836D01*
X737614Y246375D01*
X729996D01*
X752849Y231140D02*
Y246375D01*
X745231Y238757D01*
X755388D01*
X679196Y246375D02*
Y231140D01*
X686814D01*
X689353Y233679D01*
Y243836D01*
X686814Y246375D01*
X679196D01*
X694431Y243836D02*
X696970Y246375D01*
X702049D01*
X704588Y243836D01*
Y241297D01*
X702049Y238757D01*
X699509D01*
X702049D01*
X704588Y236218D01*
Y233679D01*
X702049Y231140D01*
X696970D01*
X694431Y233679D01*
X260093Y167636D02*
X257554Y170175D01*
X252475D01*
X249936Y167636D01*
Y157479D01*
X252475Y154940D01*
X257554D01*
X260093Y157479D01*
X265171Y167636D02*
X267710Y170175D01*
X272789D01*
X275328Y167636D01*
Y165097D01*
X272789Y162558D01*
X270249D01*
X272789D01*
X275328Y160018D01*
Y157479D01*
X272789Y154940D01*
X267710D01*
X265171Y157479D01*
X15241Y55878D02*
X12702Y58418D01*
X7623D01*
X5084Y55878D01*
Y45722D01*
X7623Y43183D01*
X12702D01*
X15241Y45722D01*
X30476Y43183D02*
X20319D01*
X30476Y53339D01*
Y55878D01*
X27937Y58418D01*
X22858D01*
X20319Y55878D01*
X198120Y482598D02*
X195581Y485137D01*
X190502D01*
X187963Y482598D01*
Y472442D01*
X190502Y469902D01*
X195581D01*
X198120Y472442D01*
X203198Y469902D02*
X208277D01*
X205738D01*
Y485137D01*
X203198Y482598D01*
D15*
X379730Y113030D02*
Y139700D01*
X407670D01*
X379730Y33020D02*
Y36830D01*
Y33020D02*
X407670D01*
Y139700D01*
X147320Y300990D02*
X173990D01*
X147320D02*
Y328930D01*
X250190Y300990D02*
X254000D01*
Y328930D01*
X147320D02*
X254000D01*
X859790Y58420D02*
Y165100D01*
X831850Y58420D02*
X859790D01*
X831850D02*
Y62230D01*
Y165100D02*
X859790D01*
X831850Y138430D02*
Y165100D01*
D16*
X145359Y210804D02*
X205161D01*
X145359D02*
Y236115D01*
X205161D01*
Y210804D02*
Y236115D01*
X368879Y203200D02*
X428681D01*
X368879D02*
Y228511D01*
X428681D01*
Y203200D02*
Y228511D01*
D17*
X8010Y412200D02*
X97510D01*
X152010Y481330D02*
Y502200D01*
X8010D02*
X152010D01*
X8010Y412200D02*
Y502200D01*
X152010Y412200D02*
Y435102D01*
X139954Y412200D02*
X152010D01*
D18*
X155448Y94127D02*
X187448D01*
X155452Y149499D02*
X187452D01*
M02*
